# xmcd
#
# Track frame offsets: 
#        151
#        24798
#        45715
#        73442
#        93387
#
# Disc length: 1538 seconds
#
# Revision: 0
# Processed by: cddbd v1.5.1PL0 Copyright (c) Steve Scherf et al.
# Submitted via: ExactAudioCopy v0.95a5
#
DISCID=3c060005
DTITLE=Chris Bergson - Blues
DYEAR=2003
DGENRE=Blues
TTITLE0=Staring At The Clock
TTITLE1=Come And Gone
TTITLE2=Little Girl Blue
TTITLE3=The Stumble
TTITLE4=Cold November
EXTD=
EXTT0=
EXTT1=
EXTT2=
EXTT3=
EXTT4=
PLAYORDER=
